<svg width="552" height="222" xmlns="http://www.w3.org/2000/svg" xml:space="preserve" enable-background="new -4.092 0 552 222" version="1.1">

 <g>
  <title>background</title>
  <rect fill="none" id="canvas_background" height="469" width="1022" y="-1" x="-1"/>
 </g>
 <g>
  <title>Layer 1</title>
  <path id="svg_1" d="m195.333,129.506c-0.446,0 -0.893,0 -1.488,-0.148c-6.399,-0.744 -11.013,-6.548 -10.269,-12.947l6.994,-57.891c0.447,-3.721 -1.785,-7.293 -5.208,-8.483l-47.176,-16.816c-6.103,-2.232 -9.228,-8.78 -7.144,-14.882c2.232,-6.102 8.78,-9.227 14.882,-7.144l47.176,16.816c13.989,4.911 22.472,18.603 20.687,33.336l-6.995,57.891c-0.595,5.804 -5.655,10.268 -11.459,10.268z" fill="#FFFFFF"/>
  <path id="svg_2" d="m104.851,222.222c-5.209,0 -10.417,-1.34 -15.329,-4.019l-61.016,-33.931c-8.781,-4.911 -14.733,-13.691 -15.924,-23.663l-12.352,-100.602c-1.786,-14.733 6.995,-28.723 20.983,-33.634l75.452,-25.746c6.102,-2.083 12.799,1.19 14.882,7.292c2.084,6.103 -1.19,12.799 -7.292,14.883l-75.452,25.745c-3.572,1.191 -5.804,4.763 -5.357,8.632l12.352,100.603c0.298,2.53 1.786,4.762 4.018,6.102l61.016,33.931c2.381,1.34 5.358,1.34 7.739,0l66.076,-36.163c2.232,-1.19 3.87,-3.571 4.167,-6.102c0.744,-6.399 6.549,-11.013 12.948,-10.269c6.398,0.744 11.012,6.548 10.269,12.947c-1.191,9.971 -7.293,18.9 -16.073,23.812l-66.076,36.163c-4.614,2.679 -9.823,4.019 -15.031,4.019z" fill="#FFFFFF"/>
  <path id="svg_3" d="m157.086,131.441l-37.8,-68.309l-0.149,-0.149c-2.679,-4.613 -7.738,-7.59 -13.096,-7.59s-10.417,2.977 -13.096,7.59l-37.8,68.458c-2.828,5.208 -1.042,11.607 4.167,14.436c5.208,2.827 11.608,1.041 14.436,-4.167l7.292,-13.245l50.004,0l7.292,13.245c1.935,3.571 5.506,5.506 9.376,5.506c1.785,0 3.571,-0.446 5.06,-1.339c5.207,-2.828 7.142,-9.376 4.314,-14.436zm-64.29,-24.258l13.245,-23.96l13.245,23.96l-26.49,0z" fill="#FFFFFF"/>
  <path id="svg_4" d="m674.497,295.075c17.46,-47.694 32.79,-79.42 47.481,-97.305c6.813,1.277 21.506,9.794 23.848,13.414c-22.144,26.189 -38.113,54.934 -52.166,93.898c-11.923,33.216 -18.311,60.896 -18.311,78.78c0,4.897 0,5.11 0.213,6.175c-3.833,-0.426 -7.026,-2.129 -7.878,-4.045c-0.64,-1.491 -3.833,-4.897 -5.75,-6.175c-2.555,-1.703 -4.471,-9.795 -4.471,-18.95c0.001,-12.349 6.176,-35.983 17.034,-65.792z" fill="#FFFFFF"/>
  <path id="svg_5" d="m732.289,261.926c-11.498,23.847 -19.376,48.972 -19.376,63.451c0,7.878 1.704,13.414 5.536,15.543c-3.406,2.129 -9.581,3.833 -13.84,3.833c-7.665,0 -11.498,-5.11 -11.498,-15.757c0,-7.878 2.769,-19.376 8.092,-33.216c-11.498,25.977 -30.235,47.269 -43.437,49.398c-10.433,-0.426 -17.672,-11.072 -17.672,-25.764c0,-31.726 30.66,-75.161 53.655,-76.439c5.749,1.491 15.331,11.498 15.97,16.821c-22.783,3.62 -50.676,41.307 -50.676,67.496c0,2.981 1.065,4.472 2.981,5.11c8.304,-1.703 18.524,-13.627 33.854,-39.178c5.962,-10.007 14.479,-25.977 20.653,-38.751c5.964,0.001 15.971,4.685 15.758,7.453z" fill="#FFFFFF"/>
  <path id="svg_6" d="m627.749,285.773c1.277,-5.536 7.452,-27.68 20.228,-34.067c4.685,1.064 14.266,5.749 19.802,14.053c-12.988,14.479 -16.82,29.596 -24.061,48.333c-2.98,7.878 -6.174,17.034 -6.387,23.209c0,5.109 0,7.026 -1.278,7.026c-2.129,0 -15.543,-5.536 -15.543,-18.099c0,-4.897 1.703,-14.904 7.239,-40.455zm34.067,-55.785c-1.49,-1.491 -2.555,-4.685 -2.555,-7.026c0,-4.897 2.98,-18.737 6.601,-27.893c6.601,0 21.505,8.517 25.764,14.905c-6.388,5.961 -21.932,24.912 -24.061,29.596c-3.407,-0.639 -6.388,-3.407 -6.388,-5.749c0.001,-0.852 0.214,-2.13 0.639,-3.833z" fill="#FFFFFF"/>
  <path id="svg_7" d="m696.712,213.668c-6.388,15.543 -28.745,45.778 -30.448,58.766c8.943,-9.581 23.422,-27.467 28.318,-32.576c10.859,-11.498 30.874,-32.577 44.714,-32.577c7.239,0 12.35,6.175 15.117,11.498c0,0.639 -2.342,0.852 -6.175,5.323c-7.665,10.007 -22.144,38.113 -22.144,55.573c0,7.026 1.916,8.304 5.323,8.304c2.98,0 7.026,-2.13 8.942,-2.13c1.064,0.64 1.916,2.981 1.916,4.259c-4.258,3.833 -13.414,8.729 -18.311,8.729c-16.396,0 -20.228,-10.007 -20.228,-22.569c0,-7.026 1.916,-15.756 11.71,-38.326c-0.639,0 -8.942,4.046 -17.246,12.137c-13.201,12.775 -23.209,24.486 -34.28,39.816c-6.175,8.729 -10.859,15.33 -14.266,17.247c-5.962,-3.407 -8.517,-10.221 -9.795,-16.608c0,-10.646 6.388,-34.493 15.97,-56.424c10.858,-24.912 20.866,-39.816 23.208,-40.881c7.454,2.34 14.693,11.07 17.675,20.439z" fill="#FFFFFF"/>
  <text stroke="null" transform="matrix(10.656140327453613,0,0,4.060058116912842,-2341.614029407501,-265.41222823411226) " xml:space="preserve" text-anchor="start" font-family="Helvetica, Arial, sans-serif" font-size="24" id="svg_8" y="108.447917" x="242.5" fill-opacity="null" stroke-opacity="null" stroke-width="0" fill="#000000"/>
  <text transform="matrix(12.773808984529408,0,0,6.297857285133772,-2951.1724836968256,-343.23866236422225) " font-weight="bold" xml:space="preserve" text-anchor="start" font-family="Arvo, sans-serif" font-size="24" id="svg_9" y="81.034843" x="249.094595" stroke-width="0" fill="#FFFFFF">BI</text>
 </g>
</svg>